<svg width="50" height="50" viewBox="0 0 50 50" fill="none" xmlns="http://www.w3.org/2000/svg">
<mask id="mask0_2018_261" style="mask-type:luminance" maskUnits="userSpaceOnUse" x="0" y="3" width="46" height="47">
<path d="M0 3.96826H45.9532V50H0V3.96826Z" fill="white"/>
</mask>
<g mask="url(#mask0_2018_261)">
<path d="M22.8257 50C10.2389 50 0 39.761 0 27.1742C0 14.5874 10.2389 4.34851 22.8257 4.34851C27.3127 4.34851 31.6634 5.65886 35.4084 8.13695C35.9065 8.46764 36.047 9.14349 35.7164 9.64365C35.3815 10.1459 34.7078 10.2782 34.2097 9.94954C30.8222 7.70913 26.8849 6.52072 22.8257 6.52072C11.4397 6.52072 2.17427 15.7862 2.17427 27.1742C2.17427 38.5602 11.4397 47.8257 22.8257 47.8257C34.2138 47.8257 43.4793 38.5602 43.4793 27.1742C43.4793 23.115 42.295 19.1778 40.0504 15.7903C39.7197 15.2922 39.8562 14.6143 40.3563 14.2857C40.8544 13.9571 41.5282 14.0893 41.863 14.5916C44.3432 18.3345 45.6535 22.6872 45.6535 27.1742C45.6535 39.761 35.4146 50 22.8257 50Z" fill="white"/>
</g>
<path d="M22.8257 32.6079C19.8288 32.6079 17.3921 30.1691 17.3921 27.1743C17.3921 24.1775 19.8288 21.7386 22.8257 21.7386C25.8246 21.7386 28.2614 24.1775 28.2614 27.1743C28.2614 30.1691 25.8246 32.6079 22.8257 32.6079ZM22.8257 23.9129C21.0297 23.9129 19.5664 25.3762 19.5664 27.1743C19.5664 28.9724 21.0297 30.4357 22.8257 30.4357C24.6238 30.4357 26.0871 28.9724 26.0871 27.1743C26.0871 25.3762 24.6238 23.9129 22.8257 23.9129Z" fill="white"/>
<mask id="mask1_2018_261" style="mask-type:luminance" maskUnits="userSpaceOnUse" x="21" y="0" width="29" height="29">
<path d="M21.6146 0H50V28.3069H21.6146V0Z" fill="white"/>
</mask>
<g mask="url(#mask1_2018_261)">
<path d="M22.8258 28.2614C22.5488 28.2614 22.2698 28.1539 22.0569 27.9431C21.6332 27.5194 21.6332 26.8312 22.0569 26.4075L39.1307 9.33161V5.43569C39.1307 5.14634 39.2465 4.86939 39.449 4.66477L43.7955 0.318295C44.1097 0.00620829 44.5767 -0.088865 44.9818 0.0826795C45.3869 0.252157 45.6535 0.646915 45.6535 1.08714V4.34855H48.9129C49.3531 4.34855 49.7499 4.6131 49.9174 5.02026C50.0848 5.42536 49.9918 5.89245 49.6838 6.20454L45.3353 10.5531C45.1306 10.7556 44.8558 10.8693 44.5664 10.8693H40.6684L23.5946 27.9431C23.3838 28.1539 23.1048 28.2614 22.8258 28.2614ZM41.305 8.69503H44.1159L46.2901 6.52076H44.5664C43.965 6.52076 43.4793 6.03506 43.4793 5.43569V3.70991L41.305 5.88418V8.69503Z" fill="white"/>
</g>
<path d="M22.8258 41.305C15.036 41.305 8.69714 34.9661 8.69714 27.1743C8.69714 19.3825 15.036 13.0436 22.8258 13.0436C24.936 13.0436 26.9821 13.5107 28.9063 14.4325C29.4478 14.6929 29.6772 15.3419 29.4189 15.8834C29.1585 16.4249 28.5095 16.6522 27.968 16.3939C26.3373 15.6126 24.6074 15.2179 22.8258 15.2179C16.2348 15.2179 10.8693 20.5812 10.8693 27.1743C10.8693 33.7674 16.2348 39.1307 22.8258 39.1307C29.4189 39.1307 34.7843 33.7674 34.7843 27.1743C34.7843 25.3927 34.3854 23.6628 33.6041 22.03C33.3458 21.4885 33.5752 20.8416 34.1167 20.5812C34.6499 20.3187 35.3051 20.5461 35.5655 21.0917C36.4894 23.02 36.9565 25.0661 36.9565 27.1743C36.9565 34.9661 30.6176 41.305 22.8258 41.305Z" fill="white"/>
</svg>
