<svg width="51" height="50" viewBox="0 0 51 50" fill="none" xmlns="http://www.w3.org/2000/svg">
<path d="M46.2879 3.86527C41.1171 -1.28842 32.7067 -1.28842 27.5381 3.86527L21.1887 10.1912C20.2402 11.1354 20.2402 12.6679 21.1887 13.6121C22.1371 14.5584 23.6739 14.5584 24.6223 13.6121L30.9717 7.28614C39.0667 -0.290933 50.476 11.0736 42.8542 19.126L35.4327 26.5219C31.6772 30.369 24.9698 29.5335 22.2799 24.8892C21.5958 23.7383 20.1038 23.361 18.9529 24.0409C16.4122 25.6374 18.5756 28.47 20.1166 29.9449C22.702 32.5196 26.0951 33.8069 29.4904 33.8069C32.8878 33.8069 36.2831 32.5196 38.8685 29.9449L46.2879 22.549C51.4352 17.6297 51.4373 8.78237 46.2879 3.86527Z" fill="white"/>
<path d="M25.5324 36.388L19.183 42.714C11.1477 50.3145 -0.325556 38.886 7.30053 30.8742L14.722 23.4783C18.4732 19.6396 25.1701 20.4581 27.862 25.096C28.5462 26.2469 30.0381 26.6284 31.1891 25.9443C33.7254 24.3585 31.5706 21.5174 30.0403 20.0553C24.8695 14.9037 16.4591 14.9058 11.2884 20.0553L3.86688 27.4512C-4.48815 35.6612 1.63958 50.1333 13.2428 49.9991C16.6381 49.9991 20.0334 48.7117 22.6167 46.1349L28.9682 39.8089C31.1848 37.5198 27.83 34.1778 25.5324 36.388Z" fill="white"/>
</svg>
